{"glyphs":{"0":{"ha":929,"x_min":0,"x_max":0,"o":"m 464 996 b 42 495 227 996 42 776 b 464 -6 42 214 227 -6 b 885 495 700 -6 885 214 b 464 996 885 776 700 996 z m 464 223 b 276 495 360 223 276 345 b 464 767 276 646 360 767 b 651 495 567 767 651 646 b 464 223 651 345 567 223 z "},"1":{"ha":496,"x_min":0,"x_max":0,"o":"m 441 980 l 72 980 b 60 969 65 980 60 975 l 42 770 b 54 757 41 763 47 757 l 194 757 b 206 745 200 757 206 752 l 206 22 b 218 10 206 16 211 10 l 441 10 b 453 23 447 10 453 16 l 453 968 b 441 980 453 975 447 980 z "},"2":{"ha":763,"x_min":0,"x_max":0,"o":"m 708 224 l 424 224 b 416 244 413 224 408 237 b 453 280 428 256 441 268 b 559 382 489 314 524 348 b 715 686 671 489 713 571 b 628 904 715 770 684 847 b 386 997 568 965 484 997 b 108 863 331 997 192 984 b 51 739 78 823 61 780 b 59 725 49 733 53 726 l 263 674 b 278 683 270 672 276 676 b 370 777 286 728 310 777 b 473 670 435 777 473 738 b 320 447 471 580 408 524 l 317 444 b 184 325 273 404 229 365 b 51 205 140 285 96 246 l 46 200 b 42 192 43 198 42 195 l 42 22 b 53 10 42 16 47 10 l 708 10 b 720 22 714 10 720 16 l 720 212 b 708 224 720 219 714 224 z "},"3":{"ha":788,"x_min":0,"x_max":0,"o":"m 746 324 l 746 325 b 745 329 746 326 745 328 l 745 334 b 745 337 745 335 745 336 l 745 341 b 744 353 745 345 744 349 b 743 361 744 356 743 358 b 742 367 743 363 742 365 b 669 526 733 425 708 480 b 660 535 666 529 663 532 b 657 539 659 536 658 537 b 652 544 655 540 653 542 b 650 546 651 544 651 545 b 649 561 646 550 645 557 b 703 682 677 597 696 639 b 704 687 703 684 703 685 b 705 694 704 689 704 691 b 705 704 705 697 705 700 b 706 708 706 705 706 706 b 706 720 706 712 706 716 b 392 996 706 872 565 996 b 100 824 263 996 149 929 b 77 739 89 799 80 767 b 86 726 77 733 80 727 l 266 679 b 281 689 273 677 280 682 b 297 746 284 709 289 730 b 318 773 302 756 309 765 b 333 786 323 779 329 783 l 338 788 b 372 799 349 794 360 798 b 481 703 431 807 481 761 b 385 607 481 650 438 607 l 336 607 b 324 595 329 607 324 601 l 325 460 b 337 448 325 453 330 448 l 387 448 l 387 448 b 507 321 456 448 511 390 b 388 207 503 258 450 208 b 280 271 341 207 300 233 b 255 327 270 286 260 304 b 240 335 253 333 247 337 l 50 287 b 42 274 45 286 41 280 b 43 263 42 270 43 266 b 48 243 45 257 46 250 b 303 5 79 126 177 35 b 392 -6 332 -2 361 -6 b 480 5 422 -6 451 -2 b 740 263 613 37 715 138 b 746 322 744 283 746 302 l 746 323 z "},"4":{"ha":790,"x_min":0,"x_max":0,"o":"m 736 379 l 693 379 b 681 391 687 379 681 384 l 687 967 b 675 979 687 974 682 979 l 323 979 b 312 972 318 979 314 976 l 43 351 b 42 346 42 349 42 348 l 42 186 b 53 174 42 180 47 174 l 428 174 b 439 162 434 174 439 169 l 435 20 b 446 8 435 14 440 8 l 670 8 b 681 20 676 8 681 13 l 681 163 b 693 174 681 169 687 174 l 736 174 b 748 186 743 174 748 180 l 748 367 b 736 379 748 373 743 379 z m 458 395 b 446 383 458 388 453 383 l 311 383 b 300 400 302 383 296 392 l 440 716 b 463 711 446 728 463 724 z "},"5":{"ha":804,"x_min":0,"x_max":0,"o":"m 679 570 b 428 683 636 622 557 683 b 316 666 390 683 354 681 b 300 678 308 663 299 669 l 307 744 b 318 754 307 750 312 754 l 673 754 b 685 767 680 754 685 760 l 672 969 b 661 980 672 975 667 980 l 110 980 b 98 969 104 980 99 975 l 64 441 b 73 429 64 436 68 431 l 171 405 l 258 384 b 271 391 263 382 269 385 b 404 483 292 445 344 483 b 547 341 483 483 547 420 b 546 326 547 336 546 331 b 544 312 545 322 545 317 b 540 299 543 308 542 303 b 535 286 539 294 537 290 b 518 256 531 275 525 265 b 505 240 514 250 510 245 b 495 232 502 237 499 234 b 432 201 477 217 456 206 l 432 201 b 404 199 423 200 414 199 b 328 221 376 199 350 207 l 328 221 b 327 222 328 221 327 221 l 327 222 b 319 227 324 223 322 225 l 319 227 b 319 228 319 227 319 227 b 319 228 319 228 319 228 b 277 279 301 241 286 259 b 264 285 274 284 269 286 l 135 260 l 51 243 b 42 227 44 241 40 234 b 393 -9 90 86 227 -9 b 669 109 534 -9 621 55 b 761 348 728 174 761 261 b 679 570 761 427 731 508 z "},"6":{"ha":864,"x_min":0,"x_max":0,"o":"m 633 712 b 631 713 633 713 632 713 b 619 720 627 716 623 718 b 614 723 618 721 616 722 b 606 727 611 725 609 726 b 589 735 601 730 595 733 b 582 738 586 736 584 737 b 569 743 578 740 574 742 b 558 747 566 745 562 746 b 550 750 555 748 552 749 b 533 755 544 752 538 754 b 530 756 532 755 531 756 b 529 756 529 756 529 756 b 525 767 525 757 523 763 l 664 962 b 655 980 670 969 664 980 l 388 980 b 378 975 384 980 381 978 b 228 766 362 953 292 854 b 163 674 204 732 182 700 b 120 613 143 646 122 616 b 58 491 102 584 67 524 b 42 382 47 456 42 420 b 45 332 42 365 43 348 b 50 302 46 322 48 311 b 295 19 78 171 172 65 b 305 16 299 18 302 17 b 307 15 306 16 306 15 b 431 -5 346 2 388 -5 b 821 382 646 -5 821 168 b 633 712 821 522 746 644 z m 466 220 b 443 219 458 219 451 219 b 273 388 350 219 273 295 b 274 404 273 393 274 398 b 372 540 280 464 318 516 b 443 556 393 550 418 556 b 470 554 452 556 461 555 b 613 388 551 541 613 472 b 466 220 613 302 549 231 z "},"7":{"ha":731,"x_min":0,"x_max":0,"o":"m 676 980 l 75 980 b 63 969 69 980 63 975 l 46 768 b 57 757 46 762 51 757 l 331 757 b 342 741 339 757 345 748 l 108 174 l 108 174 l 108 174 l 43 26 b 53 9 39 18 45 9 l 308 9 b 319 17 313 9 317 12 l 687 964 b 676 980 690 972 684 980 z "},"8":{"ha":792,"x_min":0,"x_max":0,"o":"m 750 324 l 750 325 b 750 329 750 326 750 328 l 749 334 b 749 337 749 335 749 336 l 749 341 b 748 353 749 345 748 349 b 747 361 748 356 747 358 b 746 367 747 363 747 365 b 673 526 738 425 712 480 b 664 535 670 529 667 532 b 661 539 663 536 662 537 b 656 544 659 540 657 542 b 654 546 655 544 655 545 b 653 561 650 550 649 557 b 707 682 682 597 700 639 b 708 687 707 684 708 685 b 709 694 708 689 708 692 b 710 704 709 697 709 700 b 710 708 710 705 710 706 b 710 720 710 712 710 716 b 396 996 710 872 569 996 b 81 720 222 996 81 872 b 82 708 81 716 81 712 b 82 704 82 706 82 705 b 83 694 82 700 82 697 b 84 687 83 692 83 689 b 84 682 84 685 84 684 b 138 561 91 639 110 597 b 137 546 142 557 142 550 b 136 544 137 545 136 544 b 131 539 134 542 132 540 b 127 535 129 537 128 536 b 125 533 126 534 126 534 l 124 532 b 45 367 82 485 54 428 b 44 361 45 365 44 363 b 43 353 44 358 44 356 b 42 341 43 349 43 345 l 42 337 b 42 334 42 336 42 335 l 42 330 b 42 325 42 328 42 326 l 42 324 l 42 323 l 48 323 l 42 323 l 42 322 b 48 263 42 302 44 282 b 307 5 72 138 174 37 b 396 -6 336 -2 366 -6 b 485 5 426 -6 456 -2 b 744 263 617 37 719 138 b 750 322 748 283 750 302 l 750 323 z m 317 779 b 396 810 337 798 364 810 b 475 779 427 810 455 798 b 507 703 494 760 507 732 b 488 642 507 680 500 660 b 396 595 468 614 435 595 b 301 646 355 595 320 616 b 285 703 291 663 285 682 b 317 779 285 732 297 760 z m 396 198 b 261 331 321 198 261 257 b 396 464 261 404 321 464 b 530 331 470 464 530 404 b 396 198 530 257 470 198 z "},"9":{"ha":864,"x_min":0,"x_max":0,"o":"m 818 657 b 813 687 817 667 815 677 b 568 969 785 817 691 924 b 558 973 564 971 561 972 b 556 974 557 973 557 973 b 431 994 517 987 475 994 b 42 607 217 994 42 820 b 230 276 42 467 117 344 b 232 275 230 276 231 276 b 244 268 236 273 240 271 b 249 265 245 267 247 266 b 257 261 252 264 254 263 b 274 253 262 259 268 256 b 281 250 277 252 279 251 b 294 245 285 249 289 247 b 305 241 297 244 301 242 b 313 238 308 240 311 239 b 330 233 319 237 325 235 b 333 233 331 233 332 233 b 334 233 334 233 334 233 b 338 222 338 231 340 226 l 199 27 b 208 8 193 19 199 8 l 475 8 b 485 13 479 8 482 10 b 635 223 501 36 571 134 b 700 315 659 256 681 288 b 743 375 720 342 741 373 b 805 498 761 404 796 464 b 821 607 816 532 821 569 b 818 657 821 624 820 641 z m 601 591 b 503 454 595 530 556 479 b 431 438 481 444 457 438 b 405 440 423 438 414 439 b 262 607 324 453 262 523 b 409 774 262 692 326 763 b 431 776 416 775 424 776 b 601 607 525 776 601 700 b 601 591 601 602 601 596 z "},"\u0000":{"ha":0,"x_min":0,"x_max":0,"o":""},"\n":{"ha":0,"x_min":0,"x_max":0,"o":""},"\r":{"ha":0,"x_min":0,"x_max":0,"o":""}," ":{"ha":194,"x_min":0,"x_max":0,"o":""},"A":{"ha":954,"x_min":0,"x_max":0,"o":"m 951 15 l 594 962 b 582 970 592 967 587 970 l 372 970 b 357 961 365 970 360 966 l 1 15 b 12 -2 -2 7 4 -2 l 254 -2 b 265 7 259 -2 263 2 l 316 162 b 328 170 318 167 322 170 l 624 170 b 636 162 630 170 634 167 l 686 8 b 700 -2 688 2 694 -2 l 940 -2 b 951 15 948 -2 954 7 z m 551 368 l 401 368 b 390 384 393 368 387 376 l 464 611 b 488 611 468 622 484 622 l 562 384 b 551 368 565 377 559 368 z "},"B":{"ha":794,"x_min":0,"x_max":0,"o":"m 620 512 b 618 532 612 516 611 527 b 717 713 681 580 717 646 b 632 903 717 795 688 861 l 632 903 l 632 904 b 391 969 580 945 492 969 l 54 969 b 42 957 47 969 42 964 l 42 12 b 54 -1 42 5 47 -1 l 354 -1 b 664 83 508 -1 574 7 b 751 296 718 129 751 210 b 620 512 751 398 707 471 z m 275 736 b 287 748 275 743 280 748 l 363 748 b 439 739 382 748 414 748 b 488 669 472 727 488 703 b 436 592 488 632 470 605 b 363 581 410 581 378 581 l 287 581 b 275 593 280 581 275 587 z m 465 231 b 393 220 439 220 408 220 l 286 220 b 274 232 279 220 274 225 l 274 381 b 286 393 274 387 279 393 l 393 393 b 468 383 411 393 443 393 b 518 310 501 371 518 346 b 465 231 518 272 500 244 z "},"C":{"ha":979,"x_min":0,"x_max":0,"o":"m 931 189 l 766 310 b 750 308 761 314 754 313 b 540 206 699 244 622 206 b 267 485 390 206 267 331 b 540 764 267 639 390 764 b 745 669 619 764 693 729 b 761 667 749 664 756 663 l 926 788 b 928 805 931 792 932 799 b 769 938 885 860 830 906 b 540 995 698 976 621 995 b 42 485 265 995 42 766 b 540 -25 42 204 265 -25 b 933 172 694 -25 839 48 b 931 189 938 178 936 185 z "},"D":{"ha":900,"x_min":0,"x_max":0,"o":"m 568 932 b 336 971 522 952 462 971 l 54 971 b 42 958 47 971 42 965 l 42 11 b 54 0 42 5 47 0 l 344 0 b 585 46 489 0 533 21 b 780 223 665 85 732 146 b 856 485 830 301 856 392 b 568 932 856 679 743 855 z m 544 301 b 304 225 499 254 407 225 l 291 225 b 278 238 284 225 278 231 l 278 734 b 290 747 278 741 283 747 b 611 486 350 748 610 738 b 544 301 611 410 588 346 z "},"E":{"ha":657,"x_min":0,"x_max":0,"o":"m 603 223 l 301 223 b 289 235 294 223 289 228 l 289 369 b 301 381 289 375 294 381 l 520 381 b 532 393 527 381 532 386 l 532 592 b 520 604 532 598 527 604 l 301 604 b 289 616 294 604 289 609 l 289 734 b 301 746 289 741 294 746 l 602 746 b 615 760 609 746 615 752 l 595 958 b 583 969 594 965 589 969 l 54 969 b 42 957 47 969 42 964 l 42 13 b 55 -1 42 5 48 -1 l 583 -1 b 595 10 589 -1 594 4 l 615 209 b 603 223 615 216 610 223 z "},"F":{"ha":636,"x_min":0,"x_max":0,"o":"m 576 959 b 564 970 575 965 570 970 l 54 970 b 42 958 47 970 42 965 l 42 12 b 54 0 42 6 47 0 l 276 0 b 289 12 283 0 289 6 l 289 367 b 301 379 289 374 294 379 l 506 379 b 518 391 512 379 518 385 l 519 590 b 507 602 519 596 514 602 l 301 602 b 289 614 294 602 289 607 l 289 735 b 301 747 289 741 294 747 l 581 747 b 594 760 589 747 594 753 z "},"G":{"ha":1082,"x_min":0,"x_max":0,"o":"m 1035 535 b 1023 546 1035 541 1029 546 l 515 546 b 503 534 509 546 503 541 l 503 348 b 515 336 503 341 508 336 l 748 336 b 757 317 758 336 763 325 b 540 206 705 247 626 206 b 267 485 390 206 267 331 b 540 764 267 639 390 764 b 745 668 619 764 694 728 b 762 667 749 664 756 663 l 921 786 b 924 810 929 792 930 802 b 769 938 881 863 828 907 b 540 995 697 976 621 995 b 42 485 265 995 42 766 b 540 -25 42 204 265 -25 b 769 32 621 -25 697 -6 b 942 183 836 68 896 120 b 1017 337 975 230 1001 282 b 1038 485 1031 385 1038 435 b 1035 535 1038 500 1036 522 z "},"H":{"ha":881,"x_min":0,"x_max":0,"o":"m 824 970 l 602 970 b 590 958 595 970 590 965 l 590 615 b 577 602 590 608 584 602 l 301 602 b 289 614 294 602 289 608 l 289 958 b 277 970 289 965 283 970 l 54 970 b 42 958 47 970 42 965 l 42 12 b 54 0 42 6 47 0 l 276 0 b 289 12 283 0 289 6 l 289 368 b 301 380 289 375 294 380 l 577 380 b 590 368 584 380 590 375 l 590 12 b 602 0 590 6 595 0 l 824 0 b 837 12 831 0 837 6 l 837 958 b 824 970 837 965 831 970 z "},"I":{"ha":332,"x_min":0,"x_max":0,"o":"m 276 970 l 54 970 b 42 958 47 970 42 965 l 42 12 b 54 0 42 6 47 0 l 276 0 b 289 12 283 0 289 6 l 289 958 b 276 970 289 965 283 970 z "},"J":{"ha":789,"x_min":0,"x_max":0,"o":"m 734 973 l 523 973 b 511 961 517 973 511 967 l 511 391 b 496 272 511 354 511 308 b 395 213 481 233 446 213 b 293 278 346 213 312 235 l 293 278 l 293 278 b 277 358 282 303 279 332 b 265 369 277 364 272 369 l 54 369 b 42 357 47 369 42 363 b 136 94 44 246 61 178 b 398 -9 221 1 344 -9 b 652 95 507 -9 585 26 b 747 391 710 156 747 227 l 747 960 b 734 973 747 967 741 973 z "},"K":{"ha":878,"x_min":0,"x_max":0,"o":"m 831 19 l 504 493 b 504 507 501 497 501 503 l 799 951 b 789 970 804 959 799 970 l 558 970 b 548 964 554 970 550 968 l 311 593 b 289 600 304 583 289 588 l 289 958 b 276 970 289 965 283 970 l 54 970 b 42 958 47 970 42 965 l 42 12 b 54 0 42 6 47 0 l 276 0 b 289 12 283 0 289 6 l 289 378 b 311 384 289 390 305 395 l 539 6 b 550 0 542 2 546 0 l 822 0 b 831 19 831 0 837 11 z "},"L":{"ha":656,"x_min":0,"x_max":0,"o":"m 601 225 l 300 225 b 289 237 294 225 289 231 l 289 961 b 277 973 289 967 283 973 l 53 973 b 42 961 47 973 42 967 l 42 14 b 53 2 42 7 47 2 l 580 2 b 592 12 586 2 591 6 l 613 212 b 601 225 613 219 608 225 z "},"M":{"ha":1186,"x_min":0,"x_max":0,"o":"m 1143 15 l 1021 963 b 1009 973 1020 969 1015 973 l 759 973 b 748 965 754 973 749 970 l 605 485 b 583 484 602 473 586 473 l 435 965 b 424 973 433 970 429 973 l 175 973 b 163 963 169 973 164 969 l 42 15 b 53 2 41 8 46 2 l 269 2 b 280 13 275 2 280 7 l 326 504 b 348 507 327 517 345 519 l 507 10 b 519 2 509 5 514 2 l 666 2 b 677 10 671 2 675 5 l 836 507 b 859 504 840 519 858 517 l 904 13 b 916 2 905 7 910 2 l 1131 2 b 1143 15 1138 2 1143 8 z "},"N":{"ha":885,"x_min":0,"x_max":0,"o":"m 830 972 l 617 972 b 605 960 610 972 605 967 l 609 477 b 588 470 610 465 594 461 l 258 967 b 248 972 256 970 252 972 l 53 972 b 42 960 47 972 42 967 l 42 14 b 53 2 42 7 47 2 l 267 2 b 278 14 273 2 278 7 l 274 461 b 295 468 274 472 288 477 l 624 7 b 634 2 626 4 630 2 l 830 2 b 842 14 836 2 842 7 l 842 960 b 830 972 842 967 836 972 z "},"O":{"ha":1032,"x_min":0,"x_max":0,"o":"m 515 998 b 17 488 240 998 17 769 b 515 -22 17 206 240 -22 b 1013 488 790 -22 1013 206 b 515 998 1013 769 790 998 z m 515 209 b 242 488 365 209 242 334 b 515 766 242 641 365 766 b 788 488 665 766 788 641 b 515 209 788 334 665 209 z "},"P":{"ha":799,"x_min":0,"x_max":0,"o":"m 645 901 b 353 972 593 945 526 972 l 53 972 b 42 960 47 972 42 967 l 42 14 b 53 2 42 7 47 2 l 277 2 b 289 14 283 2 289 7 l 289 292 b 300 304 289 299 294 304 l 379 304 b 656 388 530 304 593 333 b 756 643 716 440 756 543 b 645 901 756 747 716 841 z m 465 541 b 373 527 433 527 396 527 l 300 527 b 289 539 294 527 289 532 l 289 737 b 300 749 289 743 294 749 l 364 749 b 462 735 390 749 430 749 b 520 639 501 718 520 687 b 465 541 520 606 510 562 z "},"Q":{"ha":1082,"x_min":0,"x_max":0,"o":"m 964 202 b 962 216 960 206 959 212 b 1035 542 1021 312 1047 428 b 892 848 1023 657 972 766 b 540 997 798 944 673 997 b 187 848 407 997 282 944 b 187 126 -7 649 -7 325 b 540 -23 282 30 407 -23 b 804 55 633 -23 725 4 b 819 53 809 58 815 57 l 877 -7 b 894 -7 882 -12 890 -12 l 1023 125 b 1023 141 1027 129 1027 137 z m 798 396 b 778 392 795 388 784 386 l 716 455 b 699 455 711 460 704 460 l 570 324 b 570 307 566 319 566 312 l 633 243 l 636 240 b 632 225 640 235 638 227 b 563 209 609 217 586 211 b 337 301 476 202 394 236 b 333 668 245 405 243 562 b 540 766 386 731 460 766 b 733 684 613 766 681 737 b 798 396 807 608 832 498 z "},"R":{"ha":799,"x_min":0,"x_max":0,"o":"m 601 338 b 606 352 599 343 601 349 b 656 389 622 362 638 374 b 756 645 716 442 756 544 b 645 902 756 748 716 842 b 353 973 593 946 526 973 l 53 973 b 42 962 47 973 42 968 l 42 15 b 53 4 42 9 47 4 l 277 4 b 289 15 283 4 289 9 l 289 294 b 300 305 289 300 294 305 l 339 305 b 350 298 344 305 348 303 l 477 8 b 488 1 479 3 483 1 l 730 1 b 741 17 739 1 744 9 z m 465 543 b 373 529 433 529 396 529 l 300 529 b 289 540 294 529 289 534 l 289 738 b 300 750 289 745 294 750 l 364 750 b 462 736 390 750 430 750 b 520 641 501 719 520 688 b 465 543 520 607 510 563 z "},"S":{"ha":750,"x_min":0,"x_max":0,"o":"m 485 575 b 293 706 318 652 293 664 b 372 777 293 750 333 777 b 444 734 414 777 434 757 b 457 728 446 729 452 726 l 662 779 b 671 792 668 780 672 786 b 525 962 654 895 566 944 b 380 990 467 986 410 990 b 47 690 218 990 47 885 b 279 411 47 507 216 437 l 290 406 b 462 285 425 348 462 332 b 373 197 462 243 428 197 b 286 269 361 197 306 201 b 272 278 284 275 278 279 l 51 232 b 42 217 44 230 40 224 b 125 67 61 140 99 92 b 376 -16 184 12 268 -16 b 654 104 506 -16 599 24 b 707 296 700 172 707 253 b 485 575 707 423 645 502 z "},"T":{"ha":656,"x_min":0,"x_max":0,"o":"m 636 973 l 19 973 b 7 961 12 973 7 967 l 7 761 b 19 749 7 754 12 749 l 193 749 b 204 737 199 749 204 744 l 204 14 b 216 2 204 7 210 2 l 439 2 b 451 14 446 2 451 7 l 451 737 b 463 749 451 744 456 749 l 636 749 b 647 761 642 749 647 754 l 647 961 b 636 973 647 967 642 973 z "},"U":{"ha":813,"x_min":0,"x_max":0,"o":"m 759 970 l 535 970 b 524 959 529 970 524 965 l 524 387 b 509 274 524 352 524 308 b 407 223 495 240 454 223 b 304 280 363 223 321 242 b 289 387 290 312 289 352 l 289 959 b 277 970 289 965 283 970 l 53 970 b 42 959 47 970 42 965 l 42 387 b 140 87 42 254 56 179 b 410 -18 228 -8 354 -18 b 672 88 523 -18 603 17 b 770 387 733 150 770 222 l 770 959 b 759 970 770 965 765 970 z "},"V":{"ha":924,"x_min":0,"x_max":0,"o":"m 896 974 l 628 974 b 617 965 623 974 618 970 l 472 409 b 449 409 469 398 452 398 l 305 965 b 293 974 303 970 299 974 l 26 974 b 15 958 18 974 12 966 l 335 9 b 346 1 336 4 341 1 l 575 1 b 586 9 580 1 585 4 l 907 958 b 896 974 909 966 904 974 z "},"W":{"ha":1131,"x_min":0,"x_max":0,"o":"m 1103 973 l 888 973 b 876 962 882 973 877 968 l 831 471 b 808 468 830 458 812 456 l 649 965 b 638 973 648 970 643 973 l 491 973 b 480 965 486 973 481 970 l 321 468 b 298 471 317 456 299 458 l 253 962 b 241 973 252 968 247 973 l 26 973 b 14 960 19 973 13 967 l 136 12 b 147 2 136 6 141 2 l 397 2 b 409 10 403 2 407 5 l 551 490 b 574 491 555 502 570 502 l 722 10 b 733 2 723 5 728 2 l 982 2 b 993 12 988 2 993 6 l 1115 960 b 1103 973 1116 967 1110 973 z "},"X":{"ha":949,"x_min":0,"x_max":0,"o":"m 678 482 b 678 492 676 485 676 489 l 904 956 b 893 973 907 963 902 973 l 644 973 b 634 966 640 973 636 970 l 484 660 b 463 660 479 651 467 651 l 313 966 b 302 973 311 970 307 973 l 53 973 b 43 956 45 973 39 963 l 269 492 b 269 482 270 489 270 485 l 43 18 b 53 2 39 11 45 2 l 302 2 b 313 8 307 2 311 4 l 463 314 b 484 314 467 323 479 323 l 634 8 b 644 2 636 4 640 2 l 893 2 b 904 18 902 2 907 11 z "},"Y":{"ha":881,"x_min":0,"x_max":0,"o":"m 826 972 l 586 972 b 575 965 582 972 577 969 l 451 672 b 429 672 447 662 433 662 l 306 965 b 295 972 304 969 300 972 l 53 972 b 43 955 45 972 39 963 l 316 393 b 317 388 317 392 317 390 l 317 14 b 329 2 317 7 323 2 l 552 2 b 564 14 559 2 564 7 l 564 388 b 565 393 564 390 565 392 l 836 955 b 826 972 840 963 834 972 z "},"Z":{"ha":732,"x_min":0,"x_max":0,"o":"m 677 225 l 422 225 b 411 241 414 225 408 234 l 620 769 l 689 956 b 678 972 692 964 686 972 l 71 972 b 59 960 65 972 59 967 l 42 760 b 53 749 42 754 47 749 l 333 749 b 343 733 341 749 347 740 l 110 167 l 110 166 l 110 166 l 45 19 b 55 2 41 11 47 2 l 660 2 b 671 14 666 2 671 7 l 689 214 b 677 225 689 220 684 225 z "},"a":{"ha":906,"x_min":0,"x_max":0,"o":"m 851 744 l 645 744 b 634 732 639 744 634 738 l 634 709 b 625 704 634 705 629 702 b 431 755 566 738 500 755 b 42 371 217 755 42 583 b 431 -14 42 159 217 -14 b 625 37 500 -14 566 4 b 634 32 629 39 634 36 l 634 21 b 645 9 634 15 639 9 l 851 9 b 862 21 857 9 862 15 l 862 732 b 851 744 862 738 857 744 z m 467 194 b 288 371 368 194 288 273 b 467 547 288 468 368 547 b 634 371 565 547 634 468 b 467 194 634 273 565 194 z "},"b":{"ha":906,"x_min":0,"x_max":0,"o":"m 473 755 b 279 704 404 755 338 738 b 270 709 275 702 270 705 l 270 963 b 259 975 270 970 265 975 l 53 975 b 42 963 47 975 42 970 l 42 21 b 53 9 42 15 47 9 l 259 9 b 270 21 265 9 270 15 l 270 32 b 279 37 270 36 275 39 b 473 -14 338 4 404 -14 b 862 371 687 -14 862 159 b 473 755 862 583 687 755 z m 437 194 b 270 371 339 194 270 273 b 437 547 270 468 339 547 b 616 371 536 547 616 468 b 437 194 616 273 536 194 z "},"c":{"ha":808,"x_min":0,"x_max":0,"o":"m 759 185 l 597 278 b 582 275 592 282 585 280 b 443 194 547 223 500 194 b 306 258 388 194 339 219 b 262 371 278 287 262 327 b 306 484 262 414 278 454 b 443 547 339 522 388 547 b 582 466 500 547 547 518 b 597 463 585 461 592 460 l 657 498 l 761 558 b 765 570 766 560 767 566 b 765 570 765 570 765 570 b 744 600 758 581 751 591 b 744 601 744 600 744 601 b 721 628 736 610 729 619 b 719 630 720 629 719 629 b 708 641 715 634 712 638 b 706 643 707 642 707 643 b 696 653 703 647 699 650 b 689 659 693 655 691 657 b 685 663 688 660 686 661 b 485 751 628 710 559 741 b 478 752 483 752 480 752 b 468 753 475 753 471 753 b 454 754 464 754 459 754 b 449 755 452 755 451 755 b 431 755 443 755 437 755 b 42 371 217 755 42 583 b 431 -14 42 159 217 -14 b 449 -13 437 -14 443 -14 b 454 -13 451 -13 452 -13 b 468 -12 459 -13 464 -12 b 478 -11 471 -12 475 -11 b 485 -10 480 -11 483 -10 b 685 79 559 0 628 31 b 689 83 686 80 688 81 b 696 88 691 84 693 86 b 706 98 699 91 703 95 b 708 100 707 99 707 99 b 720 112 711 103 717 109 b 721 113 720 113 720 113 b 744 141 729 122 736 131 b 744 141 744 141 744 141 b 763 169 749 147 757 160 b 759 185 766 174 764 182 z "},"d":{"ha":906,"x_min":0,"x_max":0,"o":"m 851 975 l 645 975 b 634 963 639 975 634 970 l 634 709 b 625 704 634 705 629 702 b 431 755 566 738 500 755 b 42 371 217 755 42 583 b 431 -14 42 159 217 -14 b 625 37 500 -14 566 4 b 634 32 629 39 634 36 l 634 21 b 645 9 634 15 639 9 l 851 9 b 862 21 857 9 862 15 l 862 963 b 851 975 862 970 857 975 z m 467 194 b 288 371 368 194 288 273 b 467 547 288 468 368 547 b 634 371 565 547 634 468 b 467 194 634 273 565 194 z "},"e":{"ha":864,"x_min":0,"x_max":0,"o":"m 805 479 b 771 559 797 507 786 533 l 771 559 l 764 571 b 759 579 762 574 760 576 l 754 586 b 748 595 752 589 750 592 l 747 596 b 739 607 744 599 742 603 l 736 610 b 728 619 734 613 731 616 l 726 622 l 722 618 l 726 622 b 712 637 722 627 717 632 l 710 639 b 701 648 707 642 704 645 l 700 649 b 688 660 696 653 692 657 l 685 663 b 669 675 679 667 674 671 b 665 678 667 676 666 677 l 664 679 b 644 692 658 684 651 688 l 644 693 b 620 707 637 697 626 703 b 614 710 618 708 616 709 l 611 705 l 614 710 l 613 711 b 603 715 610 712 607 714 l 602 716 b 582 725 595 719 588 722 l 580 726 b 568 731 576 727 572 729 b 564 732 566 731 565 732 b 549 737 559 734 554 735 l 548 737 b 531 742 543 739 537 740 l 526 743 b 493 750 516 746 504 748 l 489 751 b 454 754 477 752 465 753 l 449 754 b 431 755 443 755 437 755 b 413 754 426 755 420 755 b 409 754 412 754 411 754 l 408 754 b 395 753 404 754 399 753 l 394 753 b 390 753 392 753 391 753 b 373 750 383 752 378 751 l 372 750 b 372 750 372 750 372 750 l 371 750 b 353 747 366 749 358 748 l 350 746 b 337 743 346 745 341 744 l 336 743 b 332 742 335 743 333 743 b 316 738 327 741 321 739 b 299 732 310 736 305 734 b 296 731 298 732 297 731 l 294 730 b 283 726 291 729 287 727 l 282 725 b 278 724 280 725 279 724 b 262 717 273 722 268 719 b 247 709 257 714 252 712 b 244 707 246 709 245 708 l 243 707 b 232 701 239 705 236 703 l 228 698 b 214 689 223 695 218 692 b 98 570 167 658 127 617 b 90 555 95 565 92 560 l 86 549 b 84 545 86 548 85 547 b 83 542 84 544 83 543 l 81 539 b 79 535 80 538 80 537 b 72 520 77 530 75 525 b 61 491 68 511 65 502 b 42 390 50 458 44 424 b 42 370 42 384 42 377 b 42 351 42 364 42 357 b 50 293 43 331 46 312 b 54 274 51 287 52 280 b 61 250 56 267 58 259 b 81 203 67 234 73 218 b 83 199 81 201 82 200 l 84 197 b 90 185 86 193 88 189 l 91 183 b 98 171 93 179 96 175 b 214 52 127 124 167 83 b 228 43 218 48 223 46 l 232 40 b 243 34 236 38 239 36 l 244 33 b 247 31 245 33 246 32 b 262 24 252 29 257 26 l 263 24 b 278 17 268 21 273 19 b 282 15 279 16 280 16 l 283 15 b 294 10 287 13 291 12 l 295 10 b 299 9 297 10 298 9 b 316 3 305 7 310 5 b 332 -1 321 2 326 0 b 336 -2 333 -2 335 -2 l 337 -3 b 350 -6 341 -4 346 -5 l 355 -7 b 369 -9 360 -8 364 -8 l 372 -10 b 372 -10 372 -10 372 -10 l 373 -10 b 390 -12 378 -10 383 -11 b 394 -12 391 -12 392 -12 l 395 -12 b 408 -13 399 -13 404 -13 l 409 -13 b 413 -14 411 -13 412 -14 b 431 -14 420 -14 426 -14 b 449 -14 437 -14 443 -14 l 454 -13 b 489 -10 465 -13 477 -12 l 493 -9 b 527 -2 504 -7 516 -5 l 531 -1 b 548 4 537 0 543 2 l 549 4 b 564 9 554 5 559 7 l 568 10 b 581 15 572 12 576 13 l 582 16 b 602 25 588 18 595 21 l 604 26 b 613 30 607 27 610 29 l 615 31 b 620 34 616 32 618 33 l 622 35 b 644 48 629 39 637 43 l 646 49 b 664 62 652 53 658 58 l 669 65 b 685 78 674 69 679 73 l 681 83 l 685 79 l 689 82 b 700 92 693 85 696 88 l 701 92 b 710 102 704 95 707 98 l 713 104 b 726 119 717 109 722 114 l 728 121 b 736 131 731 124 734 128 l 739 134 b 743 139 740 136 741 137 l 743 139 l 745 142 b 758 161 750 148 754 154 b 768 177 762 167 765 172 l 771 182 l 771 182 b 785 209 775 188 780 199 b 776 225 788 216 784 224 l 579 261 b 568 256 575 261 570 260 b 430 188 533 211 483 188 b 279 275 367 188 311 221 b 289 292 275 282 280 292 l 803 292 b 815 302 809 292 814 296 b 821 370 819 324 821 349 b 805 479 821 407 816 444 z m 580 454 l 301 454 b 289 468 293 454 288 461 b 440 564 299 522 368 564 b 592 468 520 564 582 522 b 580 454 593 461 587 454 z "},"f":{"ha":529,"x_min":0,"x_max":0,"o":"m 434 789 l 458 789 b 470 800 464 789 470 794 l 486 962 b 475 974 487 968 482 974 l 359 974 b 332 974 358 974 348 975 b 141 784 275 971 141 947 l 141 697 b 130 685 141 691 136 685 l 53 685 b 42 674 47 685 42 680 l 42 501 b 53 489 42 494 47 489 l 130 489 b 141 477 136 489 141 484 l 141 61 l 141 21 b 153 9 141 14 146 9 l 358 9 b 370 21 364 9 370 14 l 370 477 b 382 489 370 484 375 489 l 458 489 b 470 501 464 489 470 494 l 470 674 b 458 685 470 680 464 685 l 382 685 b 370 697 375 685 370 691 b 388 773 370 722 371 755 b 434 789 399 784 414 789 z "},"g":{"ha":903,"x_min":0,"x_max":0,"o":"m 848 741 l 643 741 b 632 730 637 741 632 736 l 632 707 b 623 702 632 703 627 700 b 430 753 564 735 498 753 b 42 370 216 753 42 581 b 430 -13 42 159 216 -13 b 622 37 498 -13 564 4 b 631 33 626 39 630 37 b 614 -54 637 0 631 -29 b 477 -117 589 -90 539 -113 b 278 -29 383 -123 310 -63 b 262 -28 273 -25 267 -25 l 111 -145 b 111 -163 105 -149 105 -158 b 461 -313 268 -306 405 -313 b 470 -313 464 -313 467 -313 l 476 -313 b 859 79 723 -313 859 -174 l 859 152 l 859 730 b 848 741 859 736 854 741 z m 465 194 b 461 194 464 194 462 194 l 460 194 b 287 370 363 197 287 274 b 465 545 287 467 367 545 b 621 431 539 545 595 499 b 632 370 628 411 632 391 b 465 194 632 273 563 194 z "},"h":{"ha":754,"x_min":0,"x_max":0,"o":"m 624 678 l 624 678 b 607 693 619 683 613 688 b 279 707 606 694 445 821 b 270 712 276 704 270 707 l 270 963 b 259 974 270 969 265 974 l 53 974 b 42 963 47 974 42 969 l 42 21 b 53 9 42 14 47 9 l 272 9 b 284 21 279 9 284 14 l 284 422 b 296 510 284 450 284 485 b 381 548 306 534 339 548 b 436 532 404 548 422 543 b 456 506 444 526 451 517 b 469 422 468 481 469 450 l 469 21 b 481 9 469 14 474 9 l 700 9 b 711 21 706 9 711 14 l 711 434 b 624 678 711 542 699 603 z "},"i":{"ha":314,"x_min":0,"x_max":0,"o":"m 259 743 l 53 743 b 42 731 47 743 42 738 l 42 21 b 53 9 42 14 47 9 l 259 9 b 270 21 265 9 270 14 l 270 731 b 259 743 270 738 265 743 z m 259 974 l 53 974 b 42 963 47 974 42 969 l 42 813 b 53 801 42 806 47 801 l 259 801 b 270 813 265 801 270 806 l 270 963 b 259 974 270 969 265 974 z "},"j":{"ha":431,"x_min":0,"x_max":0,"o":"m 375 974 l 170 974 b 158 963 163 974 158 969 l 158 813 b 170 801 158 806 163 801 l 375 801 b 387 813 381 801 387 806 l 387 963 b 375 974 387 969 381 974 z m 375 743 l 170 743 b 158 731 163 743 158 738 l 158 38 l 158 33 b 142 -39 159 10 160 -20 b 94 -55 132 -49 115 -55 l 75 -55 b 64 -65 69 -55 64 -59 l 42 -238 b 53 -251 41 -245 46 -251 b 150 -252 75 -251 119 -252 b 196 -251 172 -252 191 -251 b 387 -60 253 -248 387 -224 l 387 731 b 375 743 387 738 381 743 z "},"k":{"ha":713,"x_min":0,"x_max":0,"o":"m 462 370 b 462 382 460 374 460 378 l 669 725 b 658 743 673 733 668 743 l 420 743 b 410 737 416 743 412 741 l 292 517 b 270 523 287 506 270 511 l 270 963 b 259 974 270 969 265 974 l 53 974 b 42 963 47 974 42 969 l 42 21 b 53 9 42 14 47 9 l 259 9 b 270 21 265 9 270 14 l 270 229 b 292 235 270 242 287 246 l 410 15 b 420 9 412 11 416 9 l 658 9 b 669 27 668 9 673 19 z "},"l":{"ha":325,"x_min":0,"x_max":0,"o":"m 270 974 l 53 974 b 42 963 47 974 42 969 l 42 21 b 53 9 42 14 47 9 l 270 9 b 282 21 277 9 282 14 l 282 963 b 270 974 282 969 277 974 z "},"m":{"ha":1176,"x_min":0,"x_max":0,"o":"m 1046 678 l 1046 678 b 1029 693 1041 683 1035 688 b 770 741 1028 694 908 789 b 699 707 746 735 722 723 b 654 666 682 695 667 681 b 637 665 650 660 642 660 b 624 678 633 669 628 674 b 607 693 619 683 613 688 b 279 707 606 694 445 821 b 270 712 276 704 270 707 l 270 731 b 259 743 270 738 265 743 l 53 743 b 42 731 47 743 42 738 l 42 21 b 53 9 42 14 47 9 l 272 9 b 284 21 279 9 284 14 l 284 422 b 296 510 284 450 284 485 b 381 548 306 534 339 548 b 436 532 404 548 422 543 b 456 506 444 526 451 517 b 469 422 468 481 469 450 l 470 21 b 481 9 470 14 475 9 l 694 9 b 706 21 701 9 706 14 l 706 422 b 718 510 706 450 706 485 b 803 548 728 534 761 548 b 858 532 826 548 844 543 b 878 506 866 526 873 517 b 891 422 890 481 891 450 l 891 21 b 903 9 891 14 896 9 l 1122 9 b 1134 21 1128 9 1134 14 l 1134 434 b 1046 678 1134 542 1121 603 z "},"n":{"ha":754,"x_min":0,"x_max":0,"o":"m 624 678 l 624 678 b 607 693 619 683 613 688 b 279 707 606 694 445 821 b 270 712 276 704 270 707 l 270 731 b 259 743 270 738 265 743 l 53 743 b 42 731 47 743 42 738 l 42 21 b 53 9 42 14 47 9 l 272 9 b 284 21 279 9 284 14 l 284 422 b 296 510 284 450 284 485 b 381 548 306 534 339 548 b 436 532 404 548 422 543 b 456 506 444 526 451 517 b 469 422 468 481 469 450 l 469 21 b 481 9 469 14 474 9 l 700 9 b 711 21 706 9 711 14 l 711 434 b 624 678 711 542 699 603 z "},"o":{"ha":822,"x_min":0,"x_max":0,"o":"m 411 755 b 21 370 196 755 21 582 b 411 -14 21 158 196 -14 b 800 370 626 -14 800 158 b 411 755 800 582 626 755 z m 411 203 b 241 370 317 203 241 278 b 411 538 241 463 317 538 b 581 370 504 538 581 463 b 411 203 581 278 504 203 z "},"p":{"ha":906,"x_min":0,"x_max":0,"o":"m 473 755 b 279 704 404 755 338 737 b 270 709 275 702 270 705 l 270 731 b 259 743 270 738 265 743 l 53 743 b 42 731 47 743 42 738 l 42 -222 b 53 -234 42 -229 47 -234 l 259 -234 b 270 -222 265 -234 270 -229 l 270 32 b 279 37 270 36 275 39 b 473 -14 338 3 404 -14 b 862 370 687 -14 862 158 b 473 755 862 582 687 755 z m 437 194 b 270 370 339 194 270 273 b 437 547 270 468 339 547 b 616 370 536 547 616 468 b 437 194 616 273 536 194 z "},"q":{"ha":906,"x_min":0,"x_max":0,"o":"m 851 743 l 645 743 b 634 732 639 743 634 738 l 634 709 b 625 704 634 705 629 702 b 431 755 566 737 500 755 b 42 370 217 755 42 582 b 431 -14 42 158 217 -14 b 625 37 500 -14 566 3 b 634 32 629 39 634 36 l 634 -222 b 645 -234 634 -229 639 -234 l 851 -234 b 862 -222 857 -234 862 -229 l 862 732 b 851 743 862 738 857 743 z m 467 194 b 288 370 368 194 288 273 b 467 547 288 468 368 547 b 634 370 565 547 634 468 b 467 194 634 273 565 194 z "},"r":{"ha":489,"x_min":0,"x_max":0,"o":"m 434 743 b 279 706 385 742 328 736 b 270 711 275 704 270 706 l 270 731 b 259 743 270 738 265 743 l 53 743 b 42 731 47 743 42 738 l 42 21 b 53 9 42 14 47 9 l 272 9 b 284 21 279 9 284 14 l 284 434 b 296 510 284 462 284 485 b 342 547 300 520 316 540 b 426 548 366 552 406 550 b 439 559 433 547 438 552 l 446 731 b 434 743 446 738 441 743 z "},"s":{"ha":675,"x_min":0,"x_max":0,"o":"m 482 429 l 482 429 b 433 449 467 436 450 443 b 391 466 419 455 406 460 b 300 530 317 496 304 517 b 308 557 297 538 301 549 b 351 571 318 568 334 573 b 395 541 377 568 390 554 b 408 533 397 535 403 532 l 606 573 b 615 587 613 575 617 581 b 562 679 605 637 572 669 b 511 713 547 692 529 703 b 379 752 472 733 428 746 b 157 707 297 762 218 746 b 103 661 137 694 119 678 b 56 500 92 648 41 580 b 177 355 66 444 107 395 b 183 351 179 354 181 353 l 184 351 b 227 330 197 343 212 336 b 283 303 248 319 268 310 l 284 302 b 380 228 362 265 377 253 b 370 199 382 217 378 206 b 315 186 362 191 346 183 b 264 219 302 188 278 198 b 252 224 262 223 257 225 l 51 181 b 43 165 44 179 40 172 b 139 46 64 114 97 74 b 287 1 180 22 230 7 b 340 -3 305 -2 323 -3 b 612 147 466 -3 568 53 b 631 228 623 175 630 202 b 482 429 638 344 529 407 z "},"t":{"ha":529,"x_min":0,"x_max":0,"o":"m 474 200 l 434 200 b 386 216 413 200 396 205 b 370 287 368 234 369 265 l 370 292 b 370 535 370 294 370 474 b 382 547 370 542 375 547 l 458 547 b 470 558 464 547 470 552 l 470 732 b 458 744 470 739 464 744 l 382 744 b 370 756 375 744 370 749 l 370 957 b 358 969 370 963 365 969 l 153 969 b 141 957 147 969 141 963 l 141 756 b 130 744 141 749 136 744 l 53 744 b 42 732 47 744 42 739 l 42 558 b 53 547 42 552 47 547 l 130 547 b 141 535 136 547 141 541 l 141 182 b 332 -3 141 68 207 4 b 336 -3 333 -3 334 -3 b 449 3 356 -3 424 1 b 460 13 454 3 459 7 l 486 186 b 474 200 487 193 482 200 z "},"u":{"ha":754,"x_min":0,"x_max":0,"o":"m 700 743 l 481 743 b 469 731 474 743 469 738 l 469 330 b 457 242 469 302 469 267 b 372 204 447 219 414 204 b 318 220 349 204 331 209 b 297 246 309 227 302 235 b 284 330 286 271 284 303 l 284 731 b 272 743 284 738 279 743 l 53 743 b 42 731 47 743 42 738 l 42 318 b 129 74 42 210 54 149 l 129 74 b 146 59 134 69 140 64 b 326 -2 147 58 224 -2 b 474 45 372 -2 422 10 b 483 40 478 48 483 45 l 483 21 b 495 9 483 14 488 9 l 700 9 b 711 21 706 9 711 14 l 711 731 b 700 743 711 738 706 743 z "},"v":{"ha":829,"x_min":0,"x_max":0,"o":"m 775 743 l 571 743 b 560 735 566 743 562 740 l 414 328 l 269 735 b 258 743 267 740 263 743 l 53 743 b 42 727 45 743 40 735 l 296 17 b 307 9 298 12 302 9 l 522 9 b 533 17 527 9 531 12 l 786 727 b 775 743 789 735 783 743 z "},"w":{"ha":1136,"x_min":0,"x_max":0,"o":"m 1082 743 l 877 743 b 866 734 871 743 867 739 l 783 332 l 639 735 b 628 743 637 740 633 743 l 507 743 b 496 735 502 743 498 740 l 366 371 b 344 373 362 360 346 361 l 269 734 b 258 743 268 739 263 743 l 53 743 b 42 728 46 743 40 736 l 232 18 b 244 9 234 13 238 9 l 458 9 b 469 17 463 9 467 12 l 556 262 b 578 262 560 272 575 272 l 666 17 b 677 9 668 12 672 9 l 891 9 b 903 18 897 9 901 13 l 1093 728 b 1082 743 1095 736 1089 743 z "},"x":{"ha":778,"x_min":0,"x_max":0,"o":"m 520 370 b 520 382 517 374 517 378 l 734 725 b 724 743 739 733 733 743 l 497 743 b 487 738 493 743 490 741 l 399 595 b 379 595 394 588 383 588 l 290 738 b 280 743 288 741 284 743 l 53 743 b 43 725 44 743 39 733 l 258 382 b 258 370 260 378 260 374 l 43 27 b 53 9 39 19 44 9 l 280 9 b 290 14 284 9 288 11 l 379 157 b 399 157 383 164 394 164 l 487 14 b 497 9 490 11 493 9 l 724 9 b 734 27 733 9 739 19 z "},"y":{"ha":829,"x_min":0,"x_max":0,"o":"m 775 743 l 559 743 b 548 735 554 743 550 740 l 425 374 b 403 374 421 364 406 363 l 269 735 b 258 743 267 740 263 743 l 53 743 b 42 727 45 743 40 735 l 287 60 b 287 52 288 57 288 55 l 197 -213 b 209 -228 195 -220 201 -228 l 437 -228 b 448 -220 442 -228 446 -225 l 555 85 l 786 727 b 775 743 789 735 783 743 z "},"z":{"ha":763,"x_min":0,"x_max":0,"o":"m 720 22 l 698 201 b 686 211 697 207 692 211 l 430 211 b 420 229 421 211 416 221 l 706 726 b 696 743 711 733 705 743 l 53 743 b 42 730 46 743 41 737 l 64 551 b 75 541 64 545 69 541 l 320 541 b 330 523 329 541 335 531 l 44 27 b 54 9 39 19 45 9 l 708 9 b 720 22 715 9 721 15 z "}," ":{"ha":458,"x_min":0,"x_max":0,"o":""},"§":{"ha":1053,"x_min":0,"x_max":0,"o":"m 433 325 l 433 651 l 350 651 l 350 325 z m 567 325 l 567 651 l 484 651 l 484 325 z m 702 325 l 702 651 l 619 651 l 619 325 z m 435 48 l 422 51 l 428 77 l 416 80 l 403 19 l 415 17 l 420 39 l 432 37 l 427 14 l 439 11 l 452 72 l 440 75 z m 404 84 l 393 88 l 374 28 l 386 25 z m 363 100 b 338 91 353 104 344 99 b 332 79 336 87 334 83 b 330 75 332 78 331 76 l 349 67 l 353 77 l 346 80 b 358 90 348 85 352 92 b 358 67 366 86 361 73 b 342 51 356 62 350 48 b 339 61 338 53 339 58 l 327 62 b 338 41 326 52 329 45 b 371 62 354 34 365 49 b 363 100 376 75 378 94 z m 324 117 l 311 94 l 300 100 l 313 124 l 303 130 l 272 75 l 283 69 l 294 89 l 305 83 l 293 63 l 304 57 l 335 111 z m 256 165 b 248 168 254 167 252 168 l 249 177 l 240 178 l 239 167 b 220 154 232 165 227 161 b 210 128 215 147 209 138 b 216 115 210 123 212 118 b 231 110 220 112 225 110 b 253 125 240 111 248 118 b 264 150 260 133 265 141 b 256 165 264 156 261 161 z m 243 133 b 228 122 239 128 234 123 b 223 123 226 122 225 122 b 221 128 222 125 221 126 b 230 145 221 134 226 140 b 239 154 233 149 235 151 l 238 148 l 246 147 l 247 156 b 250 155 248 156 249 156 b 252 151 251 154 252 152 b 243 133 252 148 251 143 z m 221 198 b 204 205 216 203 210 207 b 196 200 200 205 198 203 l 162 168 l 170 159 l 201 188 b 212 191 204 192 208 195 b 209 179 217 186 212 182 l 179 151 l 187 142 l 222 174 b 221 198 230 182 228 191 z m 195 226 l 186 221 l 178 231 l 185 240 l 177 250 l 137 200 l 144 190 l 203 216 z m 153 205 b 159 210 155 206 157 208 b 171 224 164 215 168 219 l 177 217 b 153 205 169 213 161 209 z m 160 278 l 150 272 l 157 261 l 114 234 l 120 224 l 173 257 z m 156 285 l 150 296 l 95 267 l 101 256 z m 96 291 l 143 311 l 138 323 l 91 302 l 87 311 l 77 306 l 90 277 l 100 282 z m 127 351 l 123 362 l 98 354 l 59 357 l 64 344 l 78 344 b 88 344 81 344 83 344 b 80 338 85 342 82 340 l 68 330 l 73 317 l 102 342 z m 82 401 b 106 413 95 403 102 408 b 109 429 109 418 110 423 b 106 437 108 432 108 434 l 93 435 b 97 428 96 433 97 430 b 95 420 98 425 97 422 b 80 414 91 415 81 414 b 61 416 72 412 65 413 b 57 422 60 417 58 419 b 59 429 57 424 57 427 l 47 427 b 46 419 46 425 46 422 b 55 406 47 415 49 410 b 82 401 64 399 76 400 z m 106 465 b 98 481 105 471 103 478 b 88 483 94 483 91 483 l 42 480 l 42 468 l 84 470 b 95 465 89 470 94 471 b 84 458 95 458 89 458 l 43 456 l 44 443 l 91 446 b 106 465 102 447 106 455 z m 59 496 b 78 507 68 496 73 500 b 84 513 80 509 82 512 b 87 514 85 514 86 514 b 94 506 92 513 94 510 b 90 497 94 503 92 500 l 102 497 b 106 507 104 500 105 503 b 87 526 106 518 98 525 b 59 508 70 527 69 508 b 53 515 55 509 53 511 b 57 524 53 518 55 521 l 45 524 b 42 513 43 521 42 518 b 59 496 41 503 49 497 z m 57 546 l 107 539 l 109 551 l 58 558 l 60 568 l 48 569 l 44 538 l 56 536 z m 81 574 b 105 574 88 572 97 571 b 117 587 111 576 115 581 b 112 605 119 594 116 600 b 91 616 107 611 99 614 b 67 616 83 618 74 619 b 55 603 61 614 56 609 b 59 585 53 596 55 589 b 81 574 65 578 73 576 z m 66 600 b 88 603 68 608 82 605 b 106 590 93 602 107 598 b 84 586 104 582 89 585 b 66 600 78 588 64 592 z m 128 628 l 87 647 l 94 645 b 103 643 97 644 100 643 l 132 638 l 135 647 l 109 663 b 96 670 105 665 101 668 l 139 656 l 143 668 l 83 685 l 77 669 l 110 651 l 73 659 l 67 644 l 123 616 z m 166 708 l 144 722 l 150 731 l 140 737 l 134 728 l 123 735 l 129 745 l 120 751 l 107 730 l 160 698 z m 152 745 b 174 735 158 740 166 735 b 191 743 181 735 187 737 b 194 761 195 748 196 755 b 179 779 191 769 185 775 b 157 789 172 784 165 789 b 140 781 150 789 144 787 b 137 763 136 776 135 769 b 152 745 139 755 146 750 z m 149 775 b 171 769 154 781 166 773 b 182 750 175 766 186 756 b 160 755 177 743 164 752 b 149 775 155 759 144 768 z m 219 777 l 197 798 b 191 803 195 800 193 801 l 229 788 l 237 796 l 192 839 l 184 830 l 205 810 b 211 805 207 808 209 806 l 174 820 l 166 812 l 210 768 z m 217 846 l 250 807 l 259 815 l 227 854 l 234 860 l 227 869 l 203 848 l 210 840 z m 303 846 b 313 858 307 848 312 852 b 311 871 314 863 313 867 b 304 878 310 873 307 876 b 296 879 303 878 300 880 b 298 885 297 881 298 883 b 296 894 299 888 297 891 b 285 902 293 898 289 901 b 271 899 279 904 274 901 l 260 892 l 292 839 z m 287 882 b 284 877 287 880 285 878 l 276 890 b 281 891 278 892 280 892 b 286 888 284 891 285 889 b 287 882 287 886 288 884 z m 294 870 b 300 866 296 870 298 868 b 301 860 301 864 302 861 b 297 855 301 858 299 856 l 289 869 b 294 870 290 870 292 871 z m 340 867 l 328 893 l 350 871 l 362 877 l 340 898 b 341 916 344 904 344 910 b 328 926 339 921 334 926 b 315 923 323 927 319 925 l 302 918 l 329 861 z m 325 899 l 318 914 l 320 915 b 330 911 325 917 328 915 b 327 899 333 906 332 902 b 325 899 326 899 326 899 z m 371 889 b 390 886 377 885 384 884 b 402 900 396 888 400 894 b 400 924 405 908 403 916 b 387 944 397 931 394 939 b 369 947 382 947 375 949 b 356 933 363 945 358 939 b 359 909 354 925 356 917 b 371 889 361 902 365 894 z m 373 936 b 387 920 380 939 386 925 b 386 897 389 914 394 900 b 371 914 378 895 373 908 b 373 936 369 919 365 933 z m 443 965 l 431 963 l 440 922 b 436 910 441 917 442 912 b 428 920 430 909 429 915 l 419 960 l 407 957 l 417 911 b 438 899 419 900 428 897 b 453 910 444 901 451 904 b 453 920 454 913 453 916 z m 488 907 b 505 926 499 908 504 916 b 505 939 506 931 506 935 b 505 944 505 941 505 943 l 485 942 l 486 931 l 494 932 b 487 918 494 927 494 919 b 476 938 479 917 477 932 b 484 960 476 944 475 959 b 490 952 488 960 490 956 l 502 958 b 482 971 499 966 492 972 b 463 937 465 969 462 951 b 488 907 465 923 472 905 z m 531 937 l 544 937 l 543 909 l 555 909 l 557 971 l 544 972 l 544 948 l 531 949 l 532 972 l 520 972 l 518 910 l 531 910 z m 584 906 l 591 956 l 600 955 l 601 966 l 570 970 l 569 959 l 578 958 l 572 907 z m 642 894 l 655 943 l 664 940 l 667 951 l 636 959 l 634 948 l 643 946 l 630 897 z m 664 895 b 676 881 666 889 670 883 b 694 883 682 879 689 880 b 708 903 701 888 705 895 b 711 927 711 910 713 919 b 699 941 710 933 705 938 b 681 938 693 943 686 942 b 667 919 674 934 670 926 b 664 895 664 911 662 903 z m 680 914 b 695 930 682 920 688 933 b 696 908 703 927 698 913 b 680 892 694 903 688 889 b 680 914 673 895 678 909 z m 761 870 l 792 893 l 780 900 l 769 891 b 762 884 767 889 765 888 b 764 893 763 887 764 891 l 767 907 l 756 914 l 750 876 l 737 853 l 747 847 z m 781 862 b 772 840 776 856 772 848 b 779 824 771 834 774 828 b 797 821 784 820 791 819 b 816 836 805 823 811 830 b 826 858 821 842 826 850 b 818 875 826 864 823 871 b 800 878 813 879 806 880 b 781 862 792 875 786 869 z m 811 866 b 806 844 818 861 809 849 b 786 833 802 840 793 828 b 792 855 780 838 788 850 b 811 866 795 859 805 871 z m 818 791 b 835 785 822 787 828 783 b 843 790 838 786 840 788 l 875 824 l 866 832 l 837 802 b 825 799 834 799 830 795 b 828 811 821 803 825 808 l 857 841 l 848 849 l 815 815 b 818 791 808 807 810 798 z m 863 741 b 876 732 865 738 870 733 b 889 736 881 732 885 733 b 895 743 891 737 893 740 b 895 751 895 744 896 747 b 901 750 897 750 899 750 b 910 753 904 749 907 751 b 917 765 914 756 917 760 b 913 778 918 771 915 775 l 905 788 l 855 751 z m 905 772 b 906 767 906 770 907 768 b 903 762 906 764 904 763 b 897 760 902 761 900 760 b 892 763 895 760 893 762 z m 885 758 b 886 752 886 756 886 754 b 882 746 886 750 885 748 b 876 744 880 745 878 744 b 871 748 874 745 872 746 z m 885 709 l 891 699 l 914 713 l 952 719 l 945 730 l 931 727 b 922 725 928 726 926 726 b 928 732 924 727 926 730 l 937 743 l 930 754 l 907 723 z m 974 670 l 969 682 l 912 657 l 917 646 z m 925 623 l 954 632 b 961 635 957 633 959 634 l 930 609 l 933 598 l 993 617 l 989 629 l 961 620 b 953 617 958 619 956 618 l 984 643 l 981 654 l 922 635 z m 939 575 b 974 556 942 557 957 553 b 1000 576 984 558 997 564 b 999 589 1001 580 1000 584 l 997 599 l 936 587 z m 989 585 b 988 578 989 582 989 580 b 971 568 985 573 977 570 b 950 577 964 567 952 567 l 950 577 z m 1007 534 l 1006 547 l 944 540 l 946 528 z m 948 490 l 959 491 l 959 503 l 973 504 l 973 493 l 985 493 l 984 504 l 998 505 l 998 492 l 1010 493 l 1009 517 l 947 515 z m 979 479 b 945 459 965 480 947 476 b 962 439 945 449 952 442 b 975 437 966 438 971 437 b 980 437 977 437 978 437 l 981 457 l 970 458 l 970 450 b 957 458 964 450 956 451 b 978 466 957 467 972 466 b 999 455 984 466 999 464 b 990 450 998 451 993 450 l 994 438 b 1009 455 1003 440 1009 445 b 979 479 1011 472 993 478 z m 942 417 l 970 412 l 940 406 l 937 393 l 967 399 b 981 387 970 392 974 389 b 997 392 987 386 993 388 b 1003 405 1000 395 1002 400 l 1005 418 l 944 429 z m 976 408 b 976 410 976 409 976 410 l 993 407 l 993 405 b 983 399 992 400 988 398 b 976 408 978 400 975 403 z m 965 377 b 941 379 958 379 949 381 b 928 366 936 376 930 372 b 932 348 927 359 928 352 b 953 335 937 341 945 338 b 977 334 960 333 969 331 b 990 347 983 336 988 341 b 986 365 992 353 990 360 b 965 377 981 371 973 375 z m 979 350 b 957 348 977 342 962 346 b 940 362 951 349 937 354 b 962 365 942 370 956 366 b 979 350 967 363 981 358 z m 911 318 b 911 300 908 313 907 306 b 919 295 913 297 916 296 l 961 276 l 966 287 l 928 304 b 921 314 924 306 919 308 b 933 315 924 320 929 317 l 971 298 l 976 310 l 933 329 b 911 318 923 333 915 328 z m 893 280 l 919 265 b 926 262 921 264 923 262 l 885 268 l 880 258 l 933 226 l 940 237 l 914 252 b 907 255 912 253 909 254 l 947 249 l 953 259 l 899 291 z m 851 219 b 858 180 838 204 845 191 b 889 172 866 172 878 166 b 899 180 893 173 896 176 l 906 188 l 858 228 z m 859 211 l 889 185 b 884 182 888 183 886 182 b 866 189 877 181 870 185 b 859 211 860 194 852 204 z m 809 175 l 817 167 l 826 175 l 835 165 l 827 158 l 836 149 l 843 157 l 853 147 l 844 139 l 852 130 l 870 147 l 827 192 z m 810 141 b 801 141 807 141 803 140 b 798 144 800 142 799 143 b 800 153 796 147 796 151 b 809 157 802 156 805 156 l 801 166 b 791 161 798 165 794 164 b 789 135 782 154 783 144 b 821 125 800 122 815 134 b 820 117 824 123 823 119 b 811 114 818 115 814 114 l 819 105 b 829 110 823 106 826 107 b 830 134 837 116 836 126 b 810 141 824 141 818 142 z m 805 93 l 770 144 l 760 137 l 795 86 z m 731 121 b 724 96 722 116 721 105 b 729 84 725 92 727 88 b 732 80 730 83 731 81 l 749 90 l 744 99 l 737 96 b 737 111 734 100 731 108 b 755 97 745 115 752 103 b 758 74 758 92 765 78 b 748 79 754 72 750 76 l 740 69 b 763 65 746 62 755 60 b 766 104 778 74 773 92 b 731 121 760 116 746 129 z m 694 101 l 706 73 b 709 67 707 71 708 69 l 681 95 l 670 91 l 694 34 l 705 38 l 694 65 b 690 73 693 68 692 70 l 718 44 l 729 48 l 705 106 z m 650 20 l 635 80 l 623 77 l 638 17 z m 599 72 l 604 42 b 605 36 604 40 605 38 l 584 70 l 573 68 l 583 7 l 595 9 l 590 38 b 588 46 590 40 589 43 l 609 11 l 621 13 l 611 74 z m 554 62 b 539 67 550 66 545 67 b 531 65 536 67 534 66 l 532 52 b 539 55 534 54 537 55 b 546 53 542 55 544 54 b 551 36 551 48 551 38 b 547 18 551 28 550 22 b 540 15 546 17 543 15 b 533 18 538 15 536 16 l 534 5 b 542 4 536 4 539 3 b 556 11 546 4 551 5 b 564 37 564 19 564 31 b 554 62 563 51 559 58 z m 514 68 b 506 60 509 68 506 64 b 513 52 505 56 509 52 b 521 59 517 52 521 55 b 514 68 521 64 518 67 z "},"­":{"ha":0,"x_min":0,"x_max":0,"o":""}}}
